<svg version="1.1" id="Layer_1" xmlns="http://www.w3.org/2000/svg" xmlns:xlink="http://www.w3.org/1999/xlink" x="0px" y="0px"
	 width="100%" viewBox="0 0 232 225" enable-background="new 0 0 232 225" xml:space="preserve">
<path fill="#1C233A" opacity="1.000000" stroke="none" 
	d="
M114.000000,226.000000 
	C76.000000,226.000000 38.500004,226.000000 1.000005,226.000000 
	C1.000003,151.000000 1.000003,76.000015 1.000002,1.000015 
	C78.333321,1.000010 155.666641,1.000010 232.999969,1.000005 
	C232.999985,75.999985 232.999985,150.999969 233.000000,225.999969 
	C193.500000,226.000000 154.000000,226.000000 114.000000,226.000000 
M133.612518,95.451820 
	C136.304047,101.403214 138.995575,107.354614 142.315765,114.696083 
	C143.809662,110.293770 144.760544,107.491646 145.960266,103.971916 
	C146.104233,99.425323 147.380585,94.539665 146.143051,90.406731 
	C143.949844,83.082001 140.246567,76.207024 137.139557,69.159546 
	C135.987610,66.546638 134.735504,63.977886 133.020844,60.298412 
	C130.413803,66.590729 128.276306,71.749779 125.634438,77.414940 
	C123.400383,82.246216 121.166328,87.077499 118.457420,91.278107 
	C116.954720,88.151306 115.452019,85.024513 113.851295,81.184204 
	C110.931374,74.832298 108.011459,68.480392 104.945679,61.965836 
	C104.945679,61.965836 104.734886,62.023205 104.414490,61.680172 
	C104.446144,61.430199 104.477806,61.180229 104.509460,60.930256 
	C104.646049,61.006149 104.908089,61.130585 104.900337,61.150635 
	C104.789932,61.436024 104.643013,61.707287 103.889420,62.396721 
	C100.317207,70.363289 96.972366,78.442520 93.098763,86.259735 
	C90.152924,92.204636 90.184494,98.030800 92.051865,104.845207 
	C93.129837,107.629951 94.207802,110.414688 95.692535,114.250229 
	C96.871590,111.631996 97.433754,110.277412 98.081238,108.964912 
	C100.403595,104.257339 102.754822,99.564003 105.350174,95.546730 
	C109.802811,105.224251 114.255440,114.901764 119.390884,124.502411 
	C122.562492,117.331841 125.734100,110.161270 129.341553,102.390984 
	C130.567657,99.890739 131.793762,97.390495 133.612518,95.451820 
M83.442833,136.453827 
	C81.591652,134.003235 80.202141,134.832306 79.112999,137.116501 
	C78.313904,138.792389 77.628227,140.522369 76.480682,143.181290 
	C75.217400,140.319962 74.595001,138.423187 73.563164,136.784164 
	C73.067436,135.996704 71.842461,135.504044 70.855934,135.277283 
	C70.501839,135.195892 69.465752,136.271912 69.444832,136.845367 
	C69.312462,140.473999 69.377663,144.109833 69.377663,146.713989 
	C74.643982,146.713989 78.719131,146.713989 83.540298,146.713989 
	C83.540298,144.065445 83.540298,140.665146 83.442833,136.453827 
M98.784897,138.147339 
	C98.835747,141.364304 98.886597,144.581253 98.937454,147.798218 
	C99.624718,147.842102 100.311989,147.885986 100.999252,147.929871 
	C101.499130,146.282700 101.999008,144.635529 102.542526,142.844543 
	C105.246124,144.059738 105.173981,149.519485 109.979462,147.028427 
	C109.979462,143.748901 110.042633,140.459091 109.925819,137.175674 
	C109.902641,136.524063 109.189232,135.896988 108.794121,135.258606 
	C108.161026,135.816513 107.364563,136.273239 106.939240,136.959839 
	C106.483139,137.696152 106.376106,138.648682 105.919586,140.159195 
	C104.639435,138.481567 103.909218,137.171844 102.854736,136.222198 
	C101.103394,134.644974 99.328369,133.957809 98.784897,138.147339 
M131.706726,135.011505 
	C126.184372,137.082825 123.943962,141.040527 126.917274,144.563019 
	C128.426224,146.350677 131.939560,147.946121 133.938965,147.400650 
	C135.960907,146.849045 138.292923,143.685638 138.592270,141.416153 
	C139.083984,137.688141 136.344055,135.431870 131.706726,135.011505 
M150.899857,136.518890 
	C148.155518,135.910812 145.411194,135.302734 142.429596,134.642090 
	C142.429596,139.665131 142.429596,143.629288 142.429596,147.593460 
	C142.817474,147.719849 143.205338,147.846237 143.593216,147.972626 
	C144.341965,146.703979 145.090698,145.435333 145.698639,144.405258 
	C147.461975,145.697952 149.131256,146.921692 150.445435,147.885101 
	C151.008606,144.912262 151.509186,142.958664 151.706924,140.974884 
	C151.831070,139.729202 151.500610,138.438202 150.899857,136.518890 
M86.668159,141.497772 
	C86.668159,143.462509 86.668159,145.427231 86.668159,148.013504 
	C90.091133,147.776321 92.867653,147.583939 95.644180,147.391556 
	C95.639984,146.815704 95.635788,146.239853 95.631592,145.663986 
	C93.756920,145.216019 91.882240,144.768036 90.007561,144.320053 
	C90.027748,144.053970 90.047928,143.787888 90.068108,143.521805 
	C91.400291,143.186722 92.732483,142.851639 93.916206,142.553909 
	C94.505440,140.171707 95.048813,137.974915 95.688568,135.388458 
	C92.568642,135.388458 89.857101,135.388458 86.668396,135.388458 
	C86.668396,137.332489 86.668396,138.975037 86.668159,141.497772 
M160.269730,135.691956 
	C158.746521,139.539810 157.223328,143.387680 155.176147,148.559158 
	C158.546570,146.974258 160.331131,145.487976 162.121765,145.480637 
	C163.808945,145.473724 165.502502,147.024933 167.193268,147.890686 
	C167.521042,147.615616 167.848831,147.340546 168.176605,147.065491 
	C166.819595,143.611740 165.603561,140.090393 164.003387,136.753235 
	C163.618027,135.949600 161.959503,135.756454 160.269730,135.691956 
M116.216858,143.302124 
	C116.536674,144.831757 116.856483,146.361389 117.176300,147.891022 
	C117.581642,147.869980 117.986984,147.848923 118.392326,147.827866 
	C119.459763,143.887512 120.527191,139.947159 121.630615,135.873978 
	C119.454414,135.873978 116.290970,135.873978 113.669701,135.873978 
	C114.674751,138.465683 115.445328,140.452728 116.216858,143.302124 
z"/>
<path fill="#6BEFF9" opacity="1.000000" stroke="none" 
	d="
M126.138794,76.908836 
	C128.276306,71.749779 130.413803,66.590729 133.020844,60.298412 
	C134.735504,63.977886 135.987610,66.546638 137.139557,69.159546 
	C140.246567,76.207024 143.949844,83.082001 146.143051,90.406731 
	C147.380585,94.539665 146.104233,99.425323 145.645355,104.080902 
	C144.532669,102.558243 143.732086,100.927963 142.937607,99.294708 
	C139.632431,92.500275 136.329117,85.704964 132.750397,79.123947 
	C131.012222,81.888153 129.548737,84.438385 127.875748,86.654877 
	C127.157074,83.183701 126.647934,80.046272 126.138794,76.908836 
z"/>
<path fill="#A48EFC" opacity="1.000000" stroke="none" 
	d="
M105.095123,94.865288 
	C102.754822,99.564003 100.403595,104.257339 98.081238,108.964912 
	C97.433754,110.277412 96.871590,111.631996 95.692535,114.250229 
	C94.207802,110.414688 93.129837,107.629951 92.313599,104.205536 
	C98.598488,90.312523 107.328629,77.876831 105.091537,62.128483 
	C108.011459,68.480392 110.931374,74.832298 113.701096,81.894890 
	C113.184036,85.432083 112.817184,88.258591 112.304825,92.206139 
	C110.153839,89.008591 108.710091,86.862381 106.714752,83.896217 
	C106.047188,88.417328 105.571152,91.641312 105.095123,94.865288 
z"/>
<path fill="#6D76F9" opacity="1.000000" stroke="none" 
	d="
M105.222649,95.206009 
	C105.571152,91.641312 106.047188,88.417328 106.714752,83.896217 
	C108.710091,86.862381 110.153839,89.008591 112.304825,92.206139 
	C112.817184,88.258591 113.184036,85.432083 113.750099,82.251648 
	C115.452019,85.024513 116.954720,88.151306 118.701859,91.998970 
	C118.866890,103.339653 118.787476,113.959465 118.708069,124.579285 
	C114.255440,114.901764 109.802811,105.224251 105.222649,95.206009 
z"/>
<path fill="#0CA2F6" opacity="1.000000" stroke="none" 
	d="
M119.049477,124.540848 
	C118.787476,113.959465 118.866890,103.339653 118.939285,92.314308 
	C121.166328,87.077499 123.400383,82.246216 125.886612,77.161888 
	C126.647934,80.046272 127.157074,83.183701 127.800934,87.033020 
	C126.192505,92.958328 125.448296,98.108185 128.905716,102.990700 
	C125.734100,110.161270 122.562492,117.331841 119.049477,124.540848 
z"/>
<path fill="#F6BDFB" opacity="1.000000" stroke="none" 
	d="
M105.018608,62.047157 
	C107.328629,77.876831 98.598488,90.312523 92.351486,103.832825 
	C90.184494,98.030800 90.152924,92.204636 93.098763,86.259735 
	C96.972366,78.442520 100.317207,70.363289 104.242889,62.265064 
	C104.596352,62.133408 104.734886,62.023205 104.734886,62.023205 
	C104.734886,62.023205 104.945679,61.965836 105.018608,62.047157 
z"/>
<path fill="#03D9D0" opacity="1.000000" stroke="none" 
	d="
M133.025116,78.909966 
	C136.329117,85.704964 139.632431,92.500275 142.937607,99.294708 
	C143.732086,100.927963 144.532669,102.558243 145.520935,104.439705 
	C144.760544,107.491646 143.809662,110.293770 142.315765,114.696083 
	C138.995575,107.354614 136.304047,101.403214 133.314590,94.778229 
	C133.019485,89.039749 133.022293,83.974854 133.025116,78.909966 
z"/>
<path fill="#03D9D0" opacity="1.000000" stroke="none" 
	d="
M83.491562,136.859344 
	C83.540298,140.665146 83.540298,144.065445 83.540298,146.713989 
	C78.719131,146.713989 74.643982,146.713989 69.377663,146.713989 
	C69.377663,144.109833 69.312462,140.473999 69.444832,136.845367 
	C69.465752,136.271912 70.501839,135.195892 70.855934,135.277283 
	C71.842461,135.504044 73.067436,135.996704 73.563164,136.784164 
	C74.595001,138.423187 75.217400,140.319962 76.480682,143.181290 
	C77.628227,140.522369 78.313904,138.792389 79.112999,137.116501 
	C80.202141,134.832306 81.591652,134.003235 83.491562,136.859344 
z"/>
<path fill="#03D9D0" opacity="1.000000" stroke="none" 
	d="
M98.795441,137.738495 
	C99.328369,133.957809 101.103394,134.644974 102.854736,136.222198 
	C103.909218,137.171844 104.639435,138.481567 105.919586,140.159195 
	C106.376106,138.648682 106.483139,137.696152 106.939240,136.959839 
	C107.364563,136.273239 108.161026,135.816513 108.794121,135.258606 
	C109.189232,135.896988 109.902641,136.524063 109.925819,137.175674 
	C110.042633,140.459091 109.979462,143.748901 109.979462,147.028427 
	C105.173981,149.519485 105.246124,144.059738 102.542526,142.844543 
	C101.999008,144.635529 101.499130,146.282700 100.999252,147.929871 
	C100.311989,147.885986 99.624718,147.842102 98.937454,147.798218 
	C98.886597,144.581253 98.835747,141.364304 98.795441,137.738495 
z"/>
<path fill="#03D9D0" opacity="1.000000" stroke="none" 
	d="
M132.095276,135.005493 
	C136.344055,135.431870 139.083984,137.688141 138.592270,141.416153 
	C138.292923,143.685638 135.960907,146.849045 133.938965,147.400650 
	C131.939560,147.946121 128.426224,146.350677 126.917274,144.563019 
	C123.943962,141.040527 126.184372,137.082825 132.095276,135.005493 
M134.621750,143.645996 
	C134.404480,142.039917 134.416931,140.336990 133.809280,138.895477 
	C133.656387,138.532745 131.136963,138.572006 130.396347,139.218460 
	C129.640472,139.878220 129.187897,142.323471 129.557007,142.572525 
	C130.815048,143.421432 132.493774,143.646881 134.621750,143.645996 
z"/>
<path fill="#03D9D0" opacity="1.000000" stroke="none" 
	d="
M151.136993,136.843216 
	C151.500610,138.438202 151.831070,139.729202 151.706924,140.974884 
	C151.509186,142.958664 151.008606,144.912262 150.445435,147.885101 
	C149.131256,146.921692 147.461975,145.697952 145.698639,144.405258 
	C145.090698,145.435333 144.341965,146.703979 143.593216,147.972626 
	C143.205338,147.846237 142.817474,147.719849 142.429596,147.593460 
	C142.429596,143.629288 142.429596,139.665131 142.429596,134.642090 
	C145.411194,135.302734 148.155518,135.910812 151.136993,136.843216 
z"/>
<path fill="#03D9D0" opacity="1.000000" stroke="none" 
	d="
M86.668274,141.057678 
	C86.668396,138.975037 86.668396,137.332489 86.668396,135.388458 
	C89.857101,135.388458 92.568642,135.388458 95.688568,135.388458 
	C95.048813,137.974915 94.505440,140.171707 93.916206,142.553909 
	C92.732483,142.851639 91.400291,143.186722 90.068108,143.521805 
	C90.047928,143.787888 90.027748,144.053970 90.007561,144.320053 
	C91.882240,144.768036 93.756920,145.216019 95.631592,145.663986 
	C95.635788,146.239853 95.639984,146.815704 95.644180,147.391556 
	C92.867653,147.583939 90.091133,147.776321 86.668159,148.013504 
	C86.668159,145.427231 86.668159,143.462509 86.668274,141.057678 
z"/>
<path fill="#03D9D0" opacity="1.000000" stroke="none" 
	d="
M160.578110,135.487259 
	C161.959503,135.756454 163.618027,135.949600 164.003387,136.753235 
	C165.603561,140.090393 166.819595,143.611740 168.176605,147.065491 
	C167.848831,147.340546 167.521042,147.615616 167.193268,147.890686 
	C165.502502,147.024933 163.808945,145.473724 162.121765,145.480637 
	C160.331131,145.487976 158.546570,146.974258 155.176147,148.559158 
	C157.223328,143.387680 158.746521,139.539810 160.578110,135.487259 
z"/>
<path fill="#21C6FA" opacity="1.000000" stroke="none" 
	d="
M132.750397,79.123947 
	C133.022293,83.974854 133.019485,89.039749 133.018280,94.497452 
	C131.793762,97.390495 130.567657,99.890739 129.123627,102.690842 
	C125.448296,98.108185 126.192505,92.958328 128.010452,87.366760 
	C129.548737,84.438385 131.012222,81.888153 132.750397,79.123947 
z"/>
<path fill="#03D9D0" opacity="1.000000" stroke="none" 
	d="
M116.216385,142.870956 
	C115.445328,140.452728 114.674751,138.465683 113.669701,135.873978 
	C116.290970,135.873978 119.454414,135.873978 121.630615,135.873978 
	C120.527191,139.947159 119.459763,143.887512 118.392326,147.827866 
	C117.986984,147.848923 117.581642,147.869980 117.176300,147.891022 
	C116.856483,146.361389 116.536674,144.831757 116.216385,142.870956 
z"/>
<path fill="#A48EFC" opacity="1.000000" stroke="none" 
	d="
M104.574692,61.851688 
	C104.734886,62.023205 104.596352,62.133408 104.550629,62.057686 
	C104.643013,61.707287 104.789932,61.436024 104.900337,61.150635 
	C104.908089,61.130585 104.646049,61.006149 104.509460,60.930256 
	C104.477806,61.180229 104.446144,61.430199 104.574692,61.851688 
z"/>
<path fill="#1C233A" opacity="1.000000" stroke="none" 
	d="
M134.316833,143.878143 
	C132.493774,143.646881 130.815048,143.421432 129.557007,142.572525 
	C129.187897,142.323471 129.640472,139.878220 130.396347,139.218460 
	C131.136963,138.572006 133.656387,138.532745 133.809280,138.895477 
	C134.416931,140.336990 134.404480,142.039917 134.316833,143.878143 
z"/>
</svg>